PathFileType	4	(X/Y/Z)	s09c0202.trc
DataRate	CameraRate	NumFrames	NumMarkers	Units	OrigDataRate	OrigDataStartFrame	OrigNumFrames
200	200	4	50	mm	200	1500	2000
Frame#	Time	racr			lacr			c7			jug			rlel			rdr			llel			ldr			s2			lic			ric			lasi			rasi			rpsi			lpsi			rgt			lgt			rth1			rth2			rth3			rth4			rlfc			rmfc			rsh1			rsh2			rsh3			rsh4			rlmal			rmmal			rcal			rtoe			rmt5			lth1			lth2			lth4			lth3			llfc			lmfc			llmal			lmmal			lcal			lmt5			lsh1			lsh2			lsh3			lsh4			ltoe			SBIKE			LBIKE			RBIKE			
		X1	Y1	Z1	X2	Y2	Z2	X3	Y3	Z3	X4	Y4	Z4	X5	Y5	Z5	X6	Y6	Z6	X7	Y7	Z7	X8	Y8	Z8	X9	Y9	Z9	X10	Y10	Z10	X11	Y11	Z11	X12	Y12	Z12	X13	Y13	Z13	X14	Y14	Z14	X15	Y15	Z15	X16	Y16	Z16	X17	Y17	Z17	X18	Y18	Z18	X19	Y19	Z19	X20	Y20	Z20	X21	Y21	Z21	X22	Y22	Z22	X23	Y23	Z23	X24	Y24	Z24	X25	Y25	Z25	X26	Y26	Z26	X27	Y27	Z27	X28	Y28	Z28	X29	Y29	Z29	X30	Y30	Z30	X31	Y31	Z31	X32	Y32	Z32	X33	Y33	Z33	X34	Y34	Z34	X35	Y35	Z35	X36	Y36	Z36	X37	Y37	Z37	X38	Y38	Z38	X39	Y39	Z39	X40	Y40	Z40	X41	Y41	Z41	X42	Y42	Z42	X43	Y43	Z43	X44	Y44	Z44	X45	Y45	Z45	X46	Y46	Z46	X47	Y47	Z47	X48	Y48	Z48	X49	Y49	Z49	X50	Y50	Z50	
1500	7.5000	422.289065	1241.993076	-15.702558	544.233939	1216.032133	-353.804645	472.129393	1316.107206	-188.958247	458.608268	1181.657467	-192.836030	451.501188	999.306900	64.728403	664.905175	902.974152	-40.950591	464.101428	1032.121312	-556.217989	655.663653	906.290510	-468.386901	10.739967	1110.621067	-308.452478	168.820036	1098.532059	-428.662141	116.875220	1149.906289	-134.596826	202.738898	1052.621153	-390.551841	174.374714	1106.647887	-143.255527	21.106478	1153.308771	-251.345257	41.212173	1148.340177	-350.280576	131.708755	1041.564101	-85.680664	128.172873	954.843697	-459.081299	266.084795	1009.172260	-99.646619	352.236335	1006.962563	-114.702668	426.585788	958.418268	-111.901889	358.868722	1027.247384	-145.079167	506.889875	883.612119	-137.799658	487.530766	851.235320	-235.769496	433.361715	816.710086	-101.715929	395.630487	734.996844	-103.197844	324.179317	685.255908	-93.002563	417.016012	716.566434	-130.580844	257.427737	602.639493	-81.941674	257.583803	608.571999	-158.564188	168.243955	601.054047	-112.721546	403.812306	478.607830	-133.955768	326.402841	498.304091	-64.050401	190.996761	841.212698	-451.595957	248.785221	779.954826	-439.402887	280.395329	796.867682	-425.324306	268.416769	692.181088	-427.286620	295.602560	602.033184	-406.432834	302.770922	588.414110	-308.499225	193.957376	252.083185	-412.353701	216.027990	256.431419	-344.852363	125.205514	232.502496	-373.713927	277.387770	146.235400	-431.891965	263.910312	507.543218	-429.959045	264.796979	421.771923	-420.583686	221.595924	344.021291	-419.418018	289.824681	417.944852	-389.547118	371.006748	141.092032	-362.965292	-65.586309	850.894608	-243.607820	21.030890	83.485921	-442.461825	20.961875	84.085958	-44.195390	
1501	7.5050	420.243569	1242.303105	-14.670800	545.869308	1213.738979	-350.594307	472.220906	1314.593826	-188.363506	457.777183	1180.857727	-191.137312	450.923751	1000.247578	65.617895	663.714765	902.755370	-41.564375	466.487208	1033.073039	-555.510759	656.752863	906.407350	-467.386635	10.890719	1111.835185	-309.963877	169.647621	1097.973044	-429.260115	115.950751	1152.897280	-135.839458	203.352597	1052.679373	-390.763998	173.304939	1108.729763	-144.157319	21.790349	1153.459157	-253.227106	46.534783	1145.541403	-358.663930	131.069112	1045.652150	-86.030739	128.361891	954.955466	-459.153764	264.977290	1012.400919	-99.950563	351.183383	1009.756301	-114.686683	425.391408	961.280155	-111.009994	357.877528	1029.673341	-145.317064	506.441237	885.666479	-136.582053	486.859549	853.269888	-234.506858	433.552494	817.164755	-100.820405	397.548199	734.629003	-102.328646	327.186006	683.349642	-92.382558	419.523532	716.681359	-129.512120	262.110309	599.211341	-81.833056	262.033032	605.462710	-158.344644	173.599902	594.302489	-111.873935	413.439456	482.327277	-133.709842	335.484762	498.188439	-63.876528	191.477788	841.641782	-451.488374	249.560624	780.668263	-439.404181	281.168201	797.771542	-425.563290	269.638929	693.069322	-426.899291	296.930390	602.542498	-405.817014	304.994101	589.014890	-308.154906	186.637806	255.405481	-411.909894	208.907195	259.036350	-344.168441	117.506101	237.286154	-373.180245	267.507458	147.563343	-431.617300	263.790994	508.839877	-429.229173	262.244032	423.039231	-419.628521	216.961790	346.587353	-418.886366	286.950657	418.675077	-388.489727	360.899499	139.857280	-362.845660	-65.568321	850.823651	-243.622648	21.031706	83.527075	-442.464362	20.970687	84.085827	-44.179575	
1502	7.5100	418.607810	1242.714949	-13.948991	547.346333	1211.409026	-347.512230	472.505283	1313.824240	-186.716011	457.089901	1180.187279	-189.639290	450.330418	1001.154452	66.406966	662.583802	902.582203	-41.986492	468.682357	1033.560358	-554.930251	657.829605	906.491398	-466.706853	7.325969	1115.641861	-313.603888	170.343070	1097.805475	-429.872384	115.348333	1155.877983	-137.201316	203.828445	1052.731394	-390.964832	172.373048	1110.729814	-145.075584	22.263452	1155.223789	-255.009113	45.575865	1146.049156	-359.368250	130.512359	1049.667066	-86.438599	128.287790	955.221828	-459.047630	263.887176	1014.953263	-99.961309	350.198067	1011.613595	-114.323851	424.186469	962.957687	-109.738996	357.098237	1031.328510	-145.048725	505.836826	886.734691	-134.948008	485.992538	854.397399	-232.884619	433.547985	816.473812	-99.525583	399.360918	733.143805	-101.322904	330.113108	680.314190	-91.673613	421.765042	715.845877	-128.664626	266.464093	595.507126	-80.523976	266.506619	601.270425	-158.041459	178.327827	586.272577	-111.719190	423.017515	485.155952	-133.591885	344.897331	497.691825	-63.302584	192.108695	842.185789	-451.122588	250.888762	781.909168	-439.456425	282.344108	798.971934	-425.870800	271.324712	694.182943	-426.231851	298.915102	603.406606	-404.993192	307.758333	589.851558	-307.555163	179.588115	259.243206	-411.458690	201.930823	262.036278	-343.481489	110.048423	242.786185	-372.690488	257.804107	149.509431	-431.409729	264.179311	510.555019	-428.331351	260.108837	424.777723	-418.572637	212.723851	349.663348	-418.270114	284.378087	419.767546	-387.157725	350.909455	139.142680	-362.597751	-65.594133	850.870033	-243.572441	21.054415	83.549644	-442.454093	20.984552	84.088837	-44.174581	
1503	7.5150	417.152449	1243.001533	-13.442769	548.554111	1209.081151	-344.742381	472.889256	1312.809049	-185.590310	456.419463	1179.216554	-187.664607	449.656480	1002.129757	67.122273	661.632303	902.513323	-42.287552	470.612044	1034.068964	-554.381862	658.785272	906.526046	-466.271473	7.958693	1117.109209	-312.793725	170.916606	1098.001023	-430.502539	115.640174	1157.949758	-139.656511	204.195955	1053.083934	-391.538750	171.681337	1112.719638	-145.825473	22.768978	1157.136822	-256.494001	46.223820	1146.943502	-360.909594	129.859457	1053.469205	-86.745277	128.069093	955.419417	-458.151889	262.827426	1016.635240	-99.686844	349.292472	1012.621523	-113.517112	422.900353	963.464700	-108.279375	356.466521	1032.009613	-144.286482	504.953429	886.652769	-133.047845	485.083975	854.659579	-231.016457	433.412059	814.654058	-97.824621	401.154812	730.558658	-100.045026	333.024039	676.207688	-90.784052	423.804753	713.893156	-127.760707	271.363910	590.027792	-79.725287	271.077889	596.111833	-157.633459	183.198692	576.987555	-111.504877	432.261507	487.317429	-133.497089	353.807489	496.068485	-62.905888	192.952961	842.813501	-450.510987	252.214686	782.954693	-438.989504	283.786443	800.317861	-426.114720	273.385282	695.598142	-425.197775	301.478337	604.597005	-403.805534	310.931038	591.008313	-306.660411	172.803207	263.660747	-411.002255	195.096063	265.817909	-342.691735	102.900868	248.827472	-372.215353	248.136020	151.981575	-431.113226	265.108202	512.552248	-427.205894	258.381981	426.958314	-417.285506	208.800739	353.301660	-417.536270	282.104191	421.286544	-385.636741	340.906485	139.074750	-362.485941	-65.599188	850.947127	-243.465185	21.071326	83.579464	-442.432550	21.003085	84.097393	-44.153675	
